# AST/ASF file generated using VICON BodyLanguage
# -----------------------------------------------
:version 1.10
:name VICON
:units
  mass 1.0
  length 0.45
  angle deg
:documentation
   .ast/.asf automatically generated from VICON data using
   VICON BodyBuilder and BodyLanguage model FoxedUp or BRILLIANT.MOD
:root
   order TX TY TZ RX RY RZ
   axis XYZ
   position 0 0 0  
   orientation 0 0 0 
:bonedata
  begin
     id 1 
     name lhipjoint
     direction 0.623529 -0.717805 0.309788 
     length 2.23224 
     axis 0 0 0  XYZ
  end
  begin
     id 2 
     name lfemur
     direction 0.34202 -0.939693 0  
     length 7.11402  
     axis 0 0 20  XYZ
    dof rx ry rz
    limits (-160.0 20.0)
           (-70.0 70.0)
           (-60.0 70.0)
  end
  begin
     id 3 
     name ltibia
     direction 0.34202 -0.939693 0   
     length 6.78496   
     axis 0 0 20   XYZ
    dof rx
    limits (-10.0 170.0)
  end
  begin
     id 4 
     name lfoot
     direction 0.125078 -0.343648 0.930732   
     length 1.84054   
     axis -90 7.62852e-016 20   XYZ
    dof rx rz
    limits (-45.0 90.0)
           (-70.0 20.0)
  end
  begin
     id 5 
     name ltoes
     direction 1.53565e-011 -4.21893e-011 1   
     length 0.916474   
     axis -90 7.62852e-016 20   XYZ
    dof rx
    limits (-90.0 20.0)
  end
  begin
     id 6 
     name rhipjoint
     direction -0.564688 -0.757748 0.327026   
     length 2.11457  
     axis 0 0 0  XYZ 
  end
  begin
     id 7 
     name rfemur
     direction -0.34202 -0.939693 0   
     length 7.14609   
     axis 0 0 -20   XYZ
    dof rx ry rz
    limits (-160.0 20.0)
           (-70.0 70.0)
           (-70.0 60.0)
  end
  begin
     id 8 
     name rtibia
     direction -0.34202 -0.939693 0   
     length 6.78101   
     axis 0 0 -20   XYZ
    dof rx
    limits (-10.0 170.0)
 end
 begin
     id 9 
     name rfoot
     direction -0.0992671 -0.272734 0.956955   
     length 1.96168  
     axis -90 -7.62852e-016 -20   XYZ
    dof rx rz
    limits (-45.0 90.0)
           (-20.0 70.0)
  end
  begin
     id 10 
     name rtoes
     direction -1.5356e-011 -4.21891e-011 1   
     length 0.982933   
     axis -90 -7.62852e-016 -20   XYZ
    dof rx
    limits (-90.0 20.0)
  end
  begin
     id 11 
     name lowerback
     direction -0.00596953 0.998668 0.0512524   
     length 1.87557   
     axis 0 0 0   XYZ
    dof rx ry rz
    limits (-20.0 45.0)
           (-30.0 30.0)
           (-30.0 30.0)
  end
  begin
     id 12 
     name upperback
     direction 0.00584879 0.999652 0.0257308   
     length 1.87883   
     axis 0 0 0   XYZ
    dof rx ry rz
    limits (-20.0 45.0)
           (-30.0 30.0)
           (-30.0 30.0)
  end
  begin
     id 13 
     name thorax
     direction 0.010104 0.999947 0.00178881   
     length 1.87779   
     axis 0 0 0   XYZ
    dof rx ry rz
    limits (-20.0 45.0)
           (-30.0 30.0)
           (-30.0 30.0)
  end
  begin
     id 14 
     name lowerneck
     direction 0.0120771 0.995934 -0.0892773   
     length 1.40897   
     axis 0 0 0   XYZ
    dof rx ry rz
    limits (-20.0 45.0)
           (-30.0 30.0)
           (-30.0 30.0)
  end
  begin
     id 15 
     name upperneck
     direction -0.030568 0.999465 -0.0116366   
     length 1.38661   
     axis 0 0 0   XYZ
    dof rx ry rz
    limits (-20.0 45.0)
           (-30.0 30.0)
           (-30.0 30.0)
  end
  begin
     id 16
     name head
     direction -0.0170715 0.999854 -0.00104426  
     length 1.47052  
     axis 0 0 0   XYZ
    dof rx ry rz
    limits (-20.0 45.0)
           (-30.0 30.0)
           (-30.0 30.0)
  end
  begin
     id 17 
     name lclavicle
     direction 0.977763 0.206143 0.038532  
     length 3.02424  
     axis 0 0 0   XYZ
    dof ry rz
    limits (-20.0 10.0)
           (0.0 20.0)
  end
  begin
     id 18 
     name lhumerus
     direction 1 -4.48965e-011 -2.62654e-027   
     length 4.68382   
     axis 180 -30 -90   XYZ
    dof rx ry rz
    limits (-60.0 90.0)
           (-90.0 90.0)
           (-90.0 90.0)
  end
  begin
     id 19
     name lradius
     direction 1 -4.48973e-011 -1.54954e-027   
     length 2.98124   
     axis 180 -30 -90   XYZ
    dof rx
    limits (-10.0 170.0)
  end
  begin
     id 20
     name lwrist
     direction 1 -4.48959e-011 7.20928e-028   
     length 1.49062   
     axis -5.52449e-016 90 90   XYZ
    dof ry
    limits (-180.0 0.0)
 end
  begin
     id 21 
     name lhand
     direction 1 -4.48971e-011 1.44186e-027   
     length 0.707595   
     axis -9.20027e-016 90 90   XYZ
    dof rx rz
    limits (-90.0 90.0)
           (-45.0 45.0)
  end
  begin
     id 22 
     name lfingers
     direction 1 -4.48985e-011 2.88371e-027   
     length 0.570481   
     axis -1.84005e-015 90 90   XYZ
    dof rx
    limits (0.0 90.0)
  end
  begin
     id 23
     name lthumb
     direction 0.707107 -6.34929e-011 0.707107   
     length 0.819101   
     axis -90 45 2.85299e-015   XYZ
    dof rx rz
    limits (-45.0 45.0)
           (-45.0 45.0)
  end
  begin
     id 24 
     name rclavicle
     direction -0.958661 0.284411 -0.00895327   
     length 3.11921  
     axis 0 0 0   XYZ 
    dof ry rz
    limits (-10.0 20.0)
           (-20.0 0.0)
  end
  begin
     id 25 
     name rhumerus
     direction -1 -4.48963e-011 -4.22193e-027  
     length 4.75876   
     axis 180 30 90   XYZ
    dof rx ry rz
    limits (-90.0 60.0)
           (-90.0 90.0)
           (-90.0 90.0)
  end
  begin
     id 26 
     name rradius
     direction -1 -4.48968e-011 -1.07616e-027   
     length 2.93293   
     axis 180 30 90   XYZ
    dof rx
    limits (-10.0 170.0)
  end
  begin
     id 27 
     name rwrist
     direction -1 -4.48965e-011 7.20928e-028   
     length 1.46647   
     axis -5.52449e-016 -90 -90   XYZ
    dof ry
    limits (-180.0 0.0)
  end
  begin
     id 28
     name rhand
     direction -1 -4.48971e-011 1.44186e-027   
     length 0.831748   
     axis -9.20027e-016 -90 -90   XYZ
    dof rx rz
    limits (-90.0 90.0)
           (-45.0 45.0)
  end
  begin
     id 29
     name rfingers
     direction -1 -4.48961e-011 2.88371e-027   
     length 0.670577   
     axis -1.84005e-015 -90 -90   XYZ
    dof rx
    limits (0.0 90.0)
  end
  begin
     id 30
     name rthumb
     direction -0.707107 -6.34929e-011 0.707107   
     length 0.962818   
     axis -90 -45 -2.85299e-015   XYZ
    dof rx rz
    limits (-45.0 45.0)
           (-45.0 45.0)
  end
:hierarchy
  begin
    root lhipjoint rhipjoint lowerback
    lhipjoint lfemur
    lfemur ltibia
    ltibia lfoot
    lfoot ltoes
    rhipjoint rfemur
    rfemur rtibia
    rtibia rfoot
    rfoot rtoes
    lowerback upperback
    upperback thorax
    thorax lowerneck lclavicle rclavicle
    lowerneck upperneck
    upperneck head
    lclavicle lhumerus
    lhumerus lradius
    lradius lwrist
    lwrist lhand lthumb
    lhand lfingers
    rclavicle rhumerus
    rhumerus rradius
    rradius rwrist
    rwrist rhand rthumb
    rhand rfingers
  end

#!OML:ASF E:\id_vita\Project 1\Capture day 1\Session 1\Female.ASF
:FULLY-SPECIFIED
:DEGREES
404
root 6.49967 16.474 -0.292104 208.046 -97.3683 -196.262
lowerback -16.5129 -1.82209 -3.47926
upperback -4.98708 -2.18635 2.07904
thorax 4.12781 -1.18607 3.73318
lowerneck 9.47856 -3.59235 -9.23124
upperneck -5.11981 -5.10096 15.0243
head -2.43108 -3.03724 6.35654
rclavicle 2.86995e-015 -8.15017e-015
rhumerus -61.1361 -44.2824 -40.3565
rradius 14.8656
rwrist 38.617
rhand -11.2418 3.78312
rfingers 7.12502
rthumb 14.7875 -25.6693
lclavicle 2.86995e-015 -8.15017e-015
lhumerus -40.8605 39.7206 67.6386
lradius 16.2652
lwrist -49.0556
lhand -7.10936 22.7936
lfingers 7.12502
lthumb 18.7656 51.9084
rfemur -30.3722 5.45073 25.9686
rtibia 24.3721
rfoot -6.18373 -1.99375
rtoes -5.42264
lfemur -8.09249 1.68137 -16.7963
ltibia 53.9042
lfoot 19.7093 -8.05799
ltoes 3.45662
405
root 6.33235 16.4887 -0.310852 209.746 -97.5487 -197.947
lowerback -16.4808 -1.74701 -3.42335
upperback -4.95466 -2.09848 2.13616
thorax 4.13755 -1.14235 3.78031
lowerneck 9.45288 -3.70919 -9.25277
upperneck -5.3167 -5.23444 15.2091
head -2.46184 -3.11429 6.42638
rclavicle 7.26496e-015 -7.00716e-015
rhumerus -59.406 -43.5714 -42.7077
rradius 15.0015
rwrist 37.054
rhand -11.2823 3.58796
rfingers 7.12502
rthumb 14.7485 -25.8673
lclavicle 7.26496e-015 -7.00716e-015
lhumerus -43.0888 42.6073 64.2493
lradius 15.3354
lwrist -53.1375
lhand -6.95047 22.589
lfingers 7.12502
lthumb 18.9185 51.6889
rfemur -29.6388 5.44941 26.4678
rtibia 24.2167
rfoot -6.51809 -2.03457
rtoes -4.10887
lfemur -9.47937 2.34138 -16.341
ltibia 56.4445
lfoot 18.3885 -7.30066
ltoes -0.673365
406
root 6.16009 16.4991 -0.320152 211.175 -97.7481 -199.525
lowerback -16.3525 -1.64739 -3.21408
upperback -4.90588 -2.00224 2.16623
thorax 4.1075 -1.09295 3.71426
lowerneck 9.4908 -3.7479 -9.42869
upperneck -5.44656 -5.28601 15.511
head -2.48649 -3.15421 6.5583
rclavicle 3.49519e-014 -7.60351e-015
rhumerus -57.4755 -42.2253 -45.6793
rradius 15.4561
rwrist 34.9756
rhand -11.2434 3.39477
rfingers 7.12502
rthumb 14.786 -26.0578
lclavicle 3.49519e-014 -7.60351e-015
lhumerus -45.8726 45.3551 60.3786
lradius 14.5111
lwrist -57.1571
lhand -7.01511 22.4674
lfingers 7.12502
lthumb 18.8563 51.5734
rfemur -28.6716 5.3851 26.9717
rtibia 24.021
rfoot -6.93537 -2.36643
rtoes -5.09546
lfemur -10.9242 2.64084 -15.9146
ltibia 58.8278
lfoot 17.1955 -5.66939
ltoes 0.177706
407
root 5.99302 16.5115 -0.317047 211.844 -97.9838 -200.522
lowerback -16.1236 -1.51435 -2.90523
upperback -4.76764 -1.86973 2.12507
thorax 4.11109 -1.02466 3.5234
lowerneck 9.72363 -3.75315 -9.60039
upperneck -5.77728 -5.28024 15.8873
head -2.60801 -3.18048 6.72491
rclavicle -8.60015e-015 2.85132e-015
rhumerus -55.882 -41.1177 -48.2043
rradius 15.9023
rwrist 33.286
rhand -11.2418 3.49493
rfingers 7.12502
rthumb 14.7876 -25.9575
lclavicle -8.60015e-015 2.85132e-015
lhumerus -48.6437 47.4909 56.7
lradius 13.8999
lwrist -60.6557
lhand -6.78292 22.6416
lfingers 7.12502
lthumb 19.0796 51.7258
rfemur -27.5152 5.04229 27.4213
rtibia 23.7967
rfoot -7.45609 -2.574
rtoes -6.6496
lfemur -12.074 2.89749 -15.6706
ltibia 61.0919
lfoot 15.1281 -4.67901
ltoes 3.27581
408
root 5.83202 16.5334 -0.31962 212.44 -98.3087 -201.365
lowerback -15.9623 -1.43775 -2.71642
upperback -4.57179 -1.79221 2.15446
thorax 4.22242 -0.98531 3.46318
lowerneck 9.82457 -3.85575 -9.61977
upperneck -6.20416 -5.37803 16.0238
head -2.73191 -3.24635 6.79001
rclavicle -1.45082e-014 3.54085e-015
rhumerus -54.5715 -40.8138 -49.701
rradius 15.9211
rwrist 32.6441
rhand -11.4268 3.94694
rfingers 7.12502
rthumb 14.6094 -25.5185
lclavicle -1.45082e-014 3.54085e-015
lhumerus -51.8156 49.8484 52.5128
lradius 13.3625
lwrist -64.5102
lhand -6.38479 22.935
lfingers 7.12502
lthumb 19.4624 51.981
rfemur -26.4951 4.69095 27.8632
rtibia 23.5816
rfoot -7.91275 -2.57257
rtoes -6.30197
lfemur -13.3666 3.09704 -15.3895
ltibia 63.1429
lfoot 12.6753 -3.88164
ltoes 2.40304
409
root 5.67545 16.5536 -0.328812 212.753 -98.6179 -201.734
lowerback -15.9242 -1.38853 -2.64649
upperback -4.4402 -1.73388 2.18474
thorax 4.33613 -0.956733 3.46657
lowerneck 9.85793 -4.03539 -9.5074
upperneck -6.5519 -5.57867 15.9222
head -2.81798 -3.35 6.75446
rclavicle 2.47114e-014 8.19987e-016
rhumerus -53.4149 -40.7731 -50.789
rradius 15.7785
rwrist 32.5124
rhand -11.8159 4.39647
rfingers 7.12502
rthumb 14.2344 -25.0957
lclavicle 2.47114e-014 8.19987e-016
lhumerus -56.4152 52.691 46.5816
lradius 12.8309
lwrist -69.4587
lhand -6.05986 23.3026
lfingers 7.12502
lthumb 19.7748 52.3167
rfemur -25.729 4.46212 28.2183
rtibia 23.4207
rfoot -8.12236 -2.70587
rtoes -6.79978
lfemur -14.8961 3.18523 -15.1809
ltibia 64.9871
lfoot 10.2637 -2.82514
ltoes 1.49234
410
root 5.52284 16.5657 -0.336249 212.502 -98.7926 -201.382
lowerback -15.9305 -1.30694 -2.66827
upperback -4.44825 -1.6197 2.1391
thorax 4.32091 -0.899841 3.45306
lowerneck 10.035 -4.2116 -9.48681
upperneck -6.80661 -5.80188 15.907
head -2.89327 -3.47059 6.76581
rclavicle -2.8948e-015 1.11816e-014
rhumerus -52.2724 -40.3472 -52.2037
rradius 15.8963
rwrist 31.9651
rhand -11.9467 4.45396
rfingers 7.12502
rthumb 14.1084 -25.0471
lclavicle -2.8948e-015 1.11816e-014
lhumerus -62.944 55.4274 38.4884
lradius 12.3454
lwrist -75.2661
lhand -5.85621 23.301
lfingers 7.12502
lthumb 19.9706 52.2948
rfemur -25.1761 4.2492 28.4054
rtibia 23.3306
rfoot -8.27689 -2.97902
rtoes -8.97119
lfemur -16.5827 3.20612 -15.207
ltibia 66.5921
lfoot 8.05122 -1.49917
ltoes 0.17928
411
root 5.37508 16.5774 -0.338245 212.217 -98.9598 -201.005
lowerback -15.8367 -1.25183 -2.64864
upperback -4.52919 -1.55152 2.09419
thorax 4.17759 -0.863631 3.40926
lowerneck 10.45 -4.26371 -9.54174
upperneck -7.10843 -5.87129 15.9958
head -3.03784 -3.5282 6.83106
rclavicle -7.74639e-015 3.47873e-016
rhumerus -51.2182 -39.7084 -53.6359
rradius 16.0596
rwrist 31.4019
rhand -12.0157 4.64808
rfingers 7.12502
rthumb 14.0419 -24.8576
lclavicle -7.74639e-015 3.47873e-016
lhumerus -69.0016 56.8656 31.2907
lradius 12.0286
lwrist -79.5178
lhand -5.92858 23.1766
lfingers 7.12502
lthumb 19.901 52.1777
rfemur -24.6756 3.88114 28.5866
rtibia 23.3237
rfoot -8.5758 -3.02865
rtoes -10.5164
lfemur -18.2939 3.10302 -15.285
ltibia 67.9625
lfoot 6.13239 -0.184169
ltoes -0.640832
412
root 5.23721 16.5907 -0.336151 212.163 -99.2137 -200.885
lowerback -15.634 -1.2034 -2.49562
upperback -4.62143 -1.51526 2.06321
thorax 3.96437 -0.841568 3.29925
lowerneck 10.8866 -4.21448 -9.70583
upperneck -7.39132 -5.81153 16.2629
head -3.18938 -3.52994 6.97003
rclavicle 7.52897e-015 -3.52843e-015
rhumerus -50.2105 -39.1017 -54.9747
rradius 16.1693
rwrist 31.0798
rhand -12.5594 5.13875
rfingers 7.12502
rthumb 13.5179 -24.4025
lclavicle 7.52897e-015 -3.52843e-015
lhumerus -74.0983 57.5221 25.3794
lradius 11.8367
lwrist -82.6639
lhand -6.16414 23.3595
lfingers 7.12502
lthumb 19.6746 52.3839
rfemur -24.198 3.26556 28.8488
rtibia 23.3432
rfoot -8.95634 -2.75473
rtoes -10.4119
lfemur -19.9588 2.8469 -15.3381
ltibia 69.1254
lfoot 4.41357 1.18417
ltoes -0.27814
